# 3ds Max Wavefront OBJ Exporter v0.97b - (c)2007 guruware
# File Created: 18.08.2021 23:13:06

#
# object Hedra
#

v  0.1540 0.0769 3.3094
v  1.3974 -0.6916 2.8345
v  2.2201 -0.1831 2.5203
v  2.2201 1.3538 2.5203
v  1.3974 1.8622 2.8345
v  0.1540 1.0938 3.3094
v  2.9885 1.8287 1.2769
v  2.6743 2.6514 0.7685
v  1.4309 3.4198 1.2434
v  0.9225 3.1056 2.0660
v  0.6624 3.8948 -0.0000
v  -0.3544 3.8948 -0.0000
v  -1.1229 3.4198 1.2434
v  -0.6145 3.1056 2.0660
v  -2.3663 2.6514 0.7685
v  -2.6805 1.8287 1.2769
v  -1.9120 1.3538 2.5203
v  -1.0894 1.8622 2.8345
v  -1.9120 -0.1831 2.5203
v  -1.0894 -0.6916 2.8345
v  -2.6805 -0.6581 1.2769
v  -2.3663 -1.4807 0.7685
v  -1.1229 -2.2492 1.2434
v  -0.6145 -1.9349 2.0660
v  -0.3544 -2.7241 0.0000
v  0.6624 -2.7241 0.0000
v  1.4309 -2.2492 1.2434
v  0.9225 -1.9349 2.0660
v  2.6743 -1.4807 0.7685
v  2.9885 -0.6581 1.2769
v  3.4635 0.5853 0.5084
v  3.4635 0.5853 -0.5084
v  2.9885 1.8287 -1.2769
v  2.6743 2.6514 -0.7685
v  2.6743 -1.4807 -0.7685
v  2.9885 -0.6581 -1.2769
v  -1.1229 -2.2492 -1.2434
v  -0.6145 -1.9349 -2.0660
v  0.9225 -1.9349 -2.0660
v  1.4309 -2.2492 -1.2434
v  1.3974 -0.6916 -2.8345
v  2.2201 -0.1831 -2.5203
v  2.2201 1.3538 -2.5203
v  1.3974 1.8622 -2.8345
v  0.9225 3.1056 -2.0660
v  1.4309 3.4198 -1.2434
v  0.1540 0.0769 -3.3094
v  0.1540 1.0938 -3.3094
v  -2.3663 -1.4807 -0.7685
v  -2.6805 -0.6581 -1.2769
v  -1.9120 -0.1831 -2.5203
v  -1.0894 -0.6916 -2.8345
v  -1.9120 1.3538 -2.5203
v  -1.0894 1.8622 -2.8345
v  -0.6145 3.1056 -2.0660
v  -1.1229 3.4198 -1.2434
v  -2.6805 1.8287 -1.2769
v  -2.3663 2.6514 -0.7685
v  -3.1554 0.5853 0.5084
v  -3.1554 0.5853 -0.5084
# 60 vertices

vn 0.3568 0.0000 0.9342
vn 0.3568 -0.0000 0.9342
vn 0.5774 0.5774 0.5774
vn -0.0000 0.9342 0.3568
vn 0.0000 0.9342 0.3568
vn -0.5774 0.5774 0.5774
vn -0.3568 0.0000 0.9342
vn -0.3568 -0.0000 0.9342
vn -0.5774 -0.5774 0.5774
vn -0.0000 -0.9342 0.3568
vn 0.0000 -0.9342 0.3568
vn 0.5774 -0.5774 0.5774
vn 0.9342 0.3568 0.0000
vn 0.9342 -0.3568 -0.0000
vn 0.9342 -0.3568 0.0000
vn 0.0000 -0.9342 -0.3568
vn -0.0000 -0.9342 -0.3568
vn 0.5774 -0.5774 -0.5774
vn 0.5774 0.5774 -0.5774
vn 0.3568 -0.0000 -0.9342
vn 0.3568 0.0000 -0.9342
vn -0.5774 -0.5774 -0.5774
vn -0.3568 0.0000 -0.9342
vn -0.3568 -0.0000 -0.9342
vn 0.0000 0.9342 -0.3568
vn -0.0000 0.9342 -0.3568
vn -0.5774 0.5774 -0.5774
vn -0.5774 0.5774 -0.5773
vn -0.9342 -0.3568 0.0000
vn -0.9342 -0.3568 -0.0000
vn -0.9342 0.3568 -0.0000
vn -0.9342 0.3568 0.0000
vn 0.0000 0.5257 0.8507
vn 0.0000 -0.5257 0.8507
vn -0.0000 -0.5257 0.8507
vn 0.8507 0.0000 0.5257
vn 0.8507 -0.0000 0.5257
vn 0.5257 -0.8507 0.0000
vn 0.8507 -0.0000 -0.5257
vn 0.8507 0.0000 -0.5257
vn -0.0000 -0.5257 -0.8507
vn 0.0000 -0.5257 -0.8507
vn 0.0000 0.5257 -0.8507
vn -0.0000 0.5257 -0.8507
vn -0.8507 0.0000 -0.5257
vn -0.8507 -0.0000 -0.5257
vn -0.5257 0.8507 0.0000
vn -0.5257 0.8507 -0.0000
vn -0.8507 0.0000 0.5257
vn -0.8507 -0.0000 0.5257
vn -0.5257 -0.8507 0.0000
vn -0.5257 -0.8507 -0.0000
vn 0.5257 0.8507 0.0000
# 53 vertex normals

vt 0.0000 0.9232 0.5000
vt 0.1879 0.8071 0.4282
vt 0.3121 0.8839 0.3808
vt 0.3121 1.1161 0.3808
vt 0.1879 1.1929 0.4282
vt 0.0000 1.0768 0.5000
vt 0.1161 1.3808 0.3121
vt 0.4282 1.1879 0.1929
vt 0.3808 1.3121 0.1161
vt 0.1929 1.4282 0.1879
vt -0.0000 1.0768 0.5000
vt -0.0000 0.9232 0.5000
vt 0.4282 1.1879 -0.1929
vt 0.3121 1.1161 -0.3808
vt 0.1879 1.1929 -0.4282
vt 0.1161 1.3808 -0.3121
vt 0.1929 1.4282 -0.1879
vt 0.3808 1.3121 -0.1161
vt -0.3121 1.1161 0.3808
vt -0.3121 0.8839 0.3808
vt -0.1879 0.8071 0.4282
vt -0.1879 1.1929 0.4282
vt -0.1161 1.3808 -0.3121
vt -0.1879 1.1929 -0.4282
vt -0.3121 1.1161 -0.3808
vt -0.4282 1.1879 -0.1929
vt -0.3808 1.3121 -0.1161
vt -0.1929 1.4282 -0.1879
vt 0.1879 0.8071 -0.4282
vt 0.0000 0.9232 -0.5000
vt 0.0000 1.0768 -0.5000
vt 0.3121 0.8839 -0.3808
vt -0.4282 1.1879 0.1929
vt -0.1161 1.3808 0.3121
vt -0.1929 1.4282 0.1879
vt -0.3808 1.3121 0.1161
vt -0.1879 0.8071 -0.4282
vt -0.3121 0.8839 -0.3808
vt -0.3808 0.6879 0.1161
vt -0.1929 0.5718 0.1879
vt -0.1161 0.6192 0.3121
vt -0.4282 0.8121 0.1929
vt 0.1161 0.6192 0.3121
vt 0.1929 0.5718 0.1879
vt 0.3808 0.6879 0.1161
vt 0.4282 0.8121 0.1929
vt -0.4282 0.8121 -0.1929
vt -0.1161 0.6192 -0.3121
vt -0.1929 0.5718 -0.1879
vt -0.3808 0.6879 -0.1161
vt 0.3808 0.6879 -0.1161
vt 0.1929 0.5718 -0.1879
vt 0.1161 0.6192 -0.3121
vt 0.4282 0.8121 -0.1929
# 54 texture coords

g Hedra
f 1/1/1 2/2/1 3/3/1 
f 1/1/1 3/3/1 4/4/1 
f 1/1/2 4/4/2 5/5/2 
f 1/1/2 5/5/1 6/6/2 
f 4/7/3 7/5/3 8/4/3 
f 4/7/3 8/4/3 9/8/3 
f 4/7/3 9/8/3 10/9/3 
f 4/7/3 10/9/3 5/10/3 
f 9/5/4 11/11/4 12/12/4 
f 9/5/5 12/12/5 13/2/5 
f 9/5/5 13/2/5 14/3/5 
f 9/5/5 14/3/5 10/4/5 
f 13/13/6 15/14/6 16/15/6 
f 13/13/6 16/15/6 17/16/6 
f 13/13/6 17/16/6 18/17/6 
f 13/13/6 18/17/6 14/18/6 
f 17/19/7 19/20/7 20/21/7 
f 17/19/7 20/21/7 1/1/7 
f 17/19/7 1/1/8 6/6/7 
f 17/19/8 6/6/8 18/22/8 
f 19/23/9 21/24/9 22/25/9 
f 19/23/9 22/25/9 23/26/9 
f 19/23/9 23/26/9 24/27/9 
f 19/23/9 24/27/9 20/28/9 
f 23/29/10 25/30/10 26/31/10 
f 23/29/11 26/31/11 27/15/11 
f 23/29/11 27/15/11 28/14/11 
f 23/29/10 28/14/10 24/32/10 
f 27/33/12 29/19/12 30/22/12 
f 27/33/12 30/22/12 3/34/12 
f 27/33/12 3/34/12 2/35/12 
f 27/33/12 2/35/12 28/36/12 
f 7/5/13 31/11/13 32/12/13 
f 7/5/13 32/12/13 33/2/13 
f 7/5/13 33/2/13 34/3/13 
f 7/5/13 34/3/13 8/4/13 
f 31/11/14 30/22/14 29/19/14 
f 31/11/15 29/19/15 35/20/15 
f 31/11/15 35/20/15 36/21/15 
f 31/11/15 36/21/15 32/12/15 
f 25/30/16 37/37/16 38/38/16 
f 25/30/16 38/38/17 39/25/16 
f 25/30/17 39/25/17 40/24/17 
f 25/30/17 40/24/17 26/31/16 
f 39/39/18 41/40/18 42/41/18 
f 39/39/18 42/41/18 36/21/18 
f 39/39/18 36/21/18 35/20/18 
f 39/39/18 35/20/18 40/42/18 
f 33/2/19 43/43/19 44/44/19 
f 33/2/19 44/44/19 45/45/19 
f 33/2/19 45/45/19 46/46/19 
f 33/2/19 46/46/19 34/3/19 
f 43/14/20 42/32/20 41/29/20 
f 43/14/20 41/29/20 47/30/20 
f 43/14/20 47/30/21 48/31/21 
f 43/14/21 48/31/20 44/15/21 
f 37/47/22 49/38/22 50/37/22 
f 37/47/22 50/37/22 51/48/22 
f 37/47/22 51/48/22 52/49/22 
f 37/47/22 52/49/22 38/50/22 
f 51/38/23 53/25/23 54/24/23 
f 51/38/24 54/24/24 48/31/24 
f 51/38/23 48/31/23 47/30/23 
f 51/38/23 47/30/23 52/37/23 
f 45/19/25 55/20/25 56/21/25 
f 45/19/25 56/21/25 12/12/25 
f 45/19/26 12/12/26 11/11/26 
f 45/19/26 11/11/26 46/22/26 
f 55/51/27 54/52/27 53/53/27 
f 55/51/27 53/53/27 57/29/27 
f 55/51/27 57/29/27 58/32/27 
f 55/51/28 58/32/28 56/54/28 
f 49/38/29 22/25/29 21/24/29 
f 49/38/30 21/24/30 59/31/30 
f 49/38/29 59/31/29 60/30/29 
f 49/38/29 60/30/29 50/37/29 
f 59/31/31 16/15/31 15/14/31 
f 59/31/32 15/14/32 58/32/32 
f 59/31/32 58/32/32 57/29/32 
f 59/31/32 57/29/32 60/30/32 
f 5/5/33 10/7/33 14/34/33 
f 5/5/33 14/34/33 18/22/33 
f 5/5/33 18/22/33 6/6/33 
f 20/21/34 24/41/35 28/43/34 
f 20/21/34 28/43/34 2/2/34 
f 20/21/34 2/2/34 1/1/34 
f 3/34/36 30/22/36 31/11/36 
f 3/34/37 31/11/37 7/5/37 
f 3/34/36 7/5/36 4/7/36 
f 27/15/38 26/31/38 40/24/38 
f 27/15/38 40/24/38 35/23/38 
f 27/15/38 35/23/38 29/16/38 
f 36/21/39 42/41/40 43/43/39 
f 36/21/40 43/43/40 33/2/40 
f 36/21/40 33/2/40 32/12/40 
f 39/53/41 38/48/41 52/37/41 
f 39/53/42 52/37/42 47/30/42 
f 39/53/41 47/30/41 41/29/41 
f 48/31/43 54/24/43 55/23/43 
f 48/31/43 55/23/43 45/16/43 
f 48/31/44 45/16/44 44/15/43 
f 51/48/45 50/37/45 60/30/45 
f 51/48/46 60/30/46 57/29/46 
f 51/48/45 57/29/45 53/53/45 
f 58/41/47 15/43/47 13/2/47 
f 58/41/48 13/2/48 12/12/48 
f 58/41/47 12/12/47 56/21/47 
f 59/31/49 21/24/49 19/23/49 
f 59/31/49 19/23/49 17/16/49 
f 59/31/50 17/16/50 16/15/50 
f 22/53/51 49/48/51 37/37/51 
f 22/53/51 37/37/51 25/30/51 
f 22/53/52 25/30/52 23/29/52 
f 9/5/53 8/7/53 34/34/53 
f 9/5/53 34/34/53 46/22/53 
f 9/5/53 46/22/53 11/11/53 
# 116 faces

