# 3ds Max Wavefront OBJ Exporter v0.97b - (c)2007 guruware
# File Created: 05.07.2021 11:43:09

#
# object Plane003
#

v  4.3316 5.3531 2.0362
v  7.4022 5.3531 2.0362
v  7.4022 8.6948 2.0362
v  4.3316 8.6948 2.0362
v  -5.9672 2.4000 2.0362
v  -2.8966 2.4000 2.0362
v  -2.8966 5.7417 2.0362
v  -5.9672 5.7417 2.0362
v  -6.7628 -5.2434 2.0362
v  -3.6922 -5.2434 2.0362
v  -3.6922 -1.9017 2.0362
v  -6.7628 -1.9017 2.0362
v  1.3935 -4.3127 2.0362
v  4.4641 -4.3127 2.0362
v  4.4641 -0.9710 2.0362
v  1.3935 -0.9710 2.0362
# 16 vertices

vn 0.0000 0.0000 1.0000
# 1 vertex normals

vt 0.0000 0.0000 0.0000
vt 1.0000 0.0000 0.0000
vt 1.0000 1.0000 0.0000
vt 0.0000 1.0000 0.0000
# 4 texture coords

g Plane003
f 1/1/1 2/2/1 3/3/1 
f 3/3/1 4/4/1 1/1/1 
f 5/1/1 6/2/1 7/3/1 
f 7/3/1 8/4/1 5/1/1 
f 9/1/1 10/2/1 11/3/1 
f 11/3/1 12/4/1 9/1/1 
f 13/1/1 14/2/1 15/3/1 
f 15/3/1 16/4/1 13/1/1 
# 8 faces

